<svg xmlns="http://www.w3.org/2000/svg" width="400.05145263671875" height="340.1089782714844" viewBox="-115.95719909667969 -80.89590454101562 400.05145263671875 340.1089782714844"><title>Neo4j Graph Visualization</title><desc>Created using Neo4j (http://www.neo4j.com/)</desc><g class="layer relationships"><g class="relationship" transform="translate(157.67459609218255 160.5808412649024) rotate(504.70450666411836)"><path class="outline" fill="#A5ABB6" stroke="none" d="M 25 0.5 L 47.0890786606638 0.5 L 47.0890786606638 -0.5 L 25 -0.5 Z M 66.4250161606638 0.5 L 88.5140948213276 0.5 L 88.5140948213276 3.5 L 95.5140948213276 0 L 88.5140948213276 -3.5 L 88.5140948213276 -0.5 L 66.4250161606638 -0.5 Z"/><text text-anchor="middle" pointer-events="none" font-size="8px" fill="#000000" x="56.7570474106638" y="3" transform="rotate(180 56.7570474106638 0)" font-family="sans-serif">trek</text></g><g class="relationship" transform="translate(255.09425769229466 9.242060267130139) rotate(222.92306096426103)"><path class="outline" fill="#A5ABB6" stroke="none" d="M 24.018736134675446,-6.953439040707552 L 24.277555179777966,-5.987513214418485 A 71.04407611774788 71.04407611774788 0 0 1 31.77466505921617,-7.568612904634506 L 31.621373600495552,-8.556793924834395 A 72.04407611774788 72.04407611774788 0 0 0 24.018736134675446,-6.953439040707552 Z M 51.029820544414406,-8.921040089122798 L 50.913715156235384,-7.927803189468037 A 71.04407611774788 71.04407611774788 0 0 1 58.464871077150804,-6.629120382622929 L 57.79768993469214,-3.7042495610057506 L 65.40076651800067,-5.559842853822234 L 59.354445933762356,-10.528948144779166 L 58.68726479130369,-7.604077323161988 A 72.04407611774788 72.04407611774788 0 0 0 51.029820544414406,-8.921040089122798"/><text text-anchor="middle" pointer-events="none" font-size="8px" fill="#000000" x="41.32265493917106" y="-5.895685267955244" transform="rotate(180 41.32265493917106 -8.895685267955244)" font-family="sans-serif">trek</text></g><g class="relationship" transform="translate(189.35504809971795 -51.895909051379896) rotate(431.7819151021005)"><path class="outline" fill="#A5ABB6" stroke="none" d="M 21.40063509461097,-12.933012701892217 L 21.90063509461097,-12.06698729810778 A 87.72141397857284 87.72141397857284 0 0 1 52.682825595741534,-22.839001631529314 L 52.53373410376729,-23.827825036906077 A 88.72141397857284 88.72141397857284 0 0 0 21.40063509461097,-12.933012701892217 Z M 74.60598854772161,-24.377465667686607 L 74.50629844961338,-23.382447133015432 A 87.72141397857284 87.72141397857284 0 0 1 105.7864906580751,-14.155902804339481 L 104.41766359206517,-11.48638740574021 L 112.24349776580839,-11.406892216749501 L 107.61159341275501,-17.71525666913851 L 106.24276634674509,-15.045741270539237 A 88.72141397857284 88.72141397857284 0 0 0 74.60598854772161,-24.377465667686607"/><text text-anchor="middle" pointer-events="none" font-size="8px" fill="#000000" x="63.565143852133055" y="-21.292087820796894" font-family="sans-serif">road</text></g><g class="relationship" transform="translate(231.40112703885293 75.8520535200195) rotate(491.0280743483455)"><path class="outline" fill="#A5ABB6" stroke="none" d="M 21.40063509461097,12.933012701892217 L 21.90063509461097,12.06698729810778 A 64.96080613204562 64.96080613204562 0 0 0 41.62261245758071,19.5048746007583 L 41.426210558301335,20.485398080313715 A 65.96080613204562 65.96080613204562 0 0 1 21.40063509461097,12.933012701892217 Z M 63.49206889893518,21.137810717016038 L 63.35394095186216,20.1473963238263 A 64.96080613204562 64.96080613204562 0 0 0 83.48090921834694,13.887707271458467 L 82.13702790942837,11.205547129420097 L 89.96326310125623,11.199010907654843 L 85.27275096357171,17.463920794176293 L 83.92886965465314,14.781760652137923 A 65.96080613204562 65.96080613204562 0 0 1 63.49206889893518,21.137810717016038"/><text text-anchor="middle" pointer-events="none" font-size="8px" fill="#000000" x="52.44642942696214" y="24.24149140580228" transform="rotate(180 52.44642942696214 21.24149140580228)" font-family="sans-serif">road</text></g><g class="relationship" transform="translate(255.09425769229466 9.242060267130139) rotate(222.92306096426103)"><path class="outline" fill="#A5ABB6" stroke="none" d="M 24.018736134675446,6.953439040707552 L 24.277555179777966,5.987513214418485 A 71.04407611774788 71.04407611774788 0 0 0 30.463807189191165,7.3526960282982685 L 30.2920643979787,8.337837852436564 A 72.04407611774788 72.04407611774788 0 0 1 24.018736134675446,6.953439040707552 Z M 52.3664092506208,8.752115999729213 L 52.23175148758695,7.761223832611762 A 71.04407611774788 71.04407611774788 0 0 0 58.464871077150804,6.629120382622929 L 57.79768993469214,3.7042495610057506 L 65.40076651800067,5.559842853822234 L 59.354445933762356,10.528948144779166 L 58.68726479130369,7.604077323161988 A 72.04407611774788 72.04407611774788 0 0 1 52.3664092506208,8.752115999729213"/><text text-anchor="middle" pointer-events="none" font-size="8px" fill="#000000" x="41.322654939171066" y="11.895685267955244" transform="rotate(180 41.322654939171066 8.895685267955244)" font-family="sans-serif">road</text></g><g class="relationship" transform="translate(189.35504809971795 -51.895909051379896) rotate(431.7819151021005)"><path class="outline" fill="#A5ABB6" stroke="none" d="M 25 0.5 L 40.51230783540116 0.5 L 40.51230783540116 -0.5 L 25 -0.5 Z M 86.97715158540116 0.5 L 102.48945942080232 0.5 L 102.48945942080232 3.5 L 109.48945942080232 0 L 102.48945942080232 -3.5 L 102.48945942080232 -0.5 L 86.97715158540116 -0.5 Z"/><text text-anchor="middle" pointer-events="none" font-size="8px" fill="#000000" x="63.74472971040116" y="3" font-family="sans-serif">twowheeler</text></g><g class="relationship" transform="translate(189.35504809971795 -51.895909051379896) rotate(431.7819151021005)"><path class="outline" fill="#A5ABB6" stroke="none" d="M 21.40063509461097,12.933012701892217 L 21.90063509461097,12.06698729810778 A 87.72141397857284 87.72141397857284 0 0 0 53.99971879392595,23.02735741484325 L 53.86563952232592,24.018328024360613 A 88.72141397857284 88.72141397857284 0 0 1 21.40063509461097,12.933012701892217 Z M 73.26625205894268,24.501439749047876 L 73.18166244704969,23.5050238732411 A 87.72141397857284 87.72141397857284 0 0 0 105.7864906580751,14.155902804339481 L 104.41766359206517,11.48638740574021 L 112.24349776580839,11.406892216749501 L 107.61159341275501,17.71525666913851 L 106.24276634674509,15.045741270539237 A 88.72141397857284 88.72141397857284 0 0 1 73.26625205894268,24.501439749047876"/><text text-anchor="middle" pointer-events="none" font-size="8px" fill="#000000" x="63.56514385213304" y="27.292087820796894" font-family="sans-serif">trek</text></g><g class="relationship" transform="translate(231.40112703885293 75.8520535200195) rotate(491.0280743483455)"><path class="outline" fill="#A5ABB6" stroke="none" d="M 25 0.5 L 29.424876934121343 0.5 L 29.424876934121343 -0.5 L 25 -0.5 Z M 75.88972068412134 0.5 L 80.31459761824269 0.5 L 80.31459761824269 3.5 L 87.31459761824269 0 L 80.31459761824269 -3.5 L 80.31459761824269 -0.5 L 75.88972068412134 -0.5 Z"/><text text-anchor="middle" pointer-events="none" font-size="8px" fill="#000000" x="52.65729880912134" y="3" transform="rotate(180 52.65729880912134 0)" font-family="sans-serif">twowheeler</text></g><g class="relationship" transform="translate(231.40112703885293 75.8520535200195) rotate(491.0280743483455)"><path class="outline" fill="#A5ABB6" stroke="none" d="M 21.40063509461097,-12.933012701892217 L 21.90063509461097,-12.06698729810778 A 64.96080613204562 64.96080613204562 0 0 1 42.92699960074995,-19.75231087989603 L 42.750677303631264,-20.736643368204113 A 65.96080613204562 65.96080613204562 0 0 0 21.40063509461097,-12.933012701892217 Z M 62.15507182081154,-21.310365540944318 L 62.037213442237224,-20.317335127210754 A 64.96080613204562 64.96080613204562 0 0 1 83.48090921834694,-13.887707271458467 L 82.13702790942837,-11.205547129420097 L 89.96326310125623,-11.199010907654843 L 85.27275096357171,-17.463920794176293 L 83.92886965465314,-14.781760652137923 A 65.96080613204562 65.96080613204562 0 0 0 62.15507182081154,-21.310365540944318"/><text text-anchor="middle" pointer-events="none" font-size="8px" fill="#000000" x="52.446429426962126" y="-18.24149140580228" transform="rotate(180 52.446429426962126 -21.24149140580228)" font-family="sans-serif">trek</text></g><g class="relationship" transform="translate(129.20349691196438 36.606147934595356) rotate(189.76453252500102)"><path class="outline" fill="#A5ABB6" stroke="none" d="M 24.018736134675446,-6.953439040707552 L 24.277555179777966,-5.987513214418485 A 135.1178538468423 135.1178538468423 0 0 1 34.34074317174594,-8.275916160134301 L 34.156401242031706,-9.258778334067784 A 136.1178538468423 136.1178538468423 0 0 0 24.018736134675446,-6.953439040707552 Z M 80.56017729479672,-9.912849734361998 L 80.40361041099868,-8.925182375937226 A 135.1178538468423 135.1178538468423 0 0 1 90.52729885388486,-6.921317880762533 L 89.83282357453459,-4.002807286919956 L 97.45290278607592,-5.787293994585651 L 91.45326589301857,-10.812665339219304 L 90.7587906136683,-7.894154745376726 A 136.1178538468423 136.1178538468423 0 0 0 80.56017729479672,-9.912849734361998"/><text text-anchor="middle" pointer-events="none" font-size="8px" fill="#000000" x="57.33725555817973" y="-8.07807249229839" transform="rotate(180 57.33725555817973 -11.07807249229839)" font-family="sans-serif">twowheeler</text></g><g class="relationship" transform="translate(9.193800956836297 15.953371217935302) rotate(451.25330665514605)"><path class="outline" fill="#A5ABB6" stroke="none" d="M 24.018736134675446,-6.953439040707552 L 24.277555179777966,-5.987513214418485 A 115.25518599668975 115.25518599668975 0 0 1 29.407518049288065,-7.2368785293893865 L 29.193208609763357,-8.213644347858988 A 116.25518599668975 116.25518599668975 0 0 0 24.018736134675446,-6.953439040707552 Z M 75.54067874282043,-8.921968194320172 L 75.35631805218529,-7.939109539299764 A 115.25518599668975 115.25518599668975 0 0 1 80.52206403836018,-6.847092534339462 L 79.83452174391026,-3.926940895581205 L 87.45034157787111,-5.729519120416019 L 81.43878709762676,-10.740628052683807 L 80.75124480317683,-7.820476413925548 A 116.25518599668975 116.25518599668975 0 0 0 75.54067874282043,-8.921968194320172"/><text text-anchor="middle" pointer-events="none" font-size="8px" fill="#000000" x="52.338923755497426" y="-7.401222509495284" transform="rotate(180 52.338923755497426 -10.401222509495284)" font-family="sans-serif">twowheeler</text></g><g class="relationship" transform="translate(6.748775578140402 127.71156707596836) rotate(422.85059489214046)"><path class="outline" fill="#A5ABB6" stroke="none" d="M 24.018736134675446,6.953439040707552 L 24.277555179777966,5.987513214418485 A 122.04424598920227 122.04424598920227 0 0 0 31.08781498486564,7.604512449232544 L 30.884797503776962,8.583687562464291 A 123.04424598920227 123.04424598920227 0 0 1 24.018736134675446,6.953439040707552 Z M 77.2551343527628,9.272553389298409 L 77.08129279037328,8.287779754808739 A 122.04424598920227 122.04424598920227 0 0 0 83.9365801548254,6.873792382529639 L 83.24654394196662,3.9542290547452406 L 90.8639006217988,5.7503017738232085 L 84.85662843863713,10.766543486242169 L 84.16659222577834,7.846980158457771 A 123.04424598920227 123.04424598920227 0 0 1 77.2551343527628,9.272553389298409"/><text text-anchor="middle" pointer-events="none" font-size="8px" fill="#000000" x="54.0446453612404" y="13.632549954928507" font-family="sans-serif">twowheeler</text></g><g class="relationship" transform="translate(255.09425769229466 9.242060267130139) rotate(527.7367338663114)"><path class="outline" fill="#A5ABB6" stroke="none" d="M 21.40063509461097,12.933012701892217 L 21.90063509461097,12.06698729810778 A 81.93205450584942 81.93205450584942 0 0 0 49.85747373623487,22.00440748657988 L 49.698693528784176,22.991721441571855 A 82.93205450584942 82.93205450584942 0 0 1 21.40063509461097,12.933012701892217 Z M 71.77076297885907,23.5644159015051 L 71.66339676582625,22.570196360207007 A 81.93205450584942 81.93205450584942 0 0 0 100.09795524774104,14.095939414927644 L 98.73470518188748,11.423571689866161 L 106.56068828386009,11.360417215446269 L 101.91562200221244,17.65909638167629 L 100.55237193635888,14.986728656614806 A 82.93205450584942 82.93205450584942 0 0 1 71.77076297885907,23.5644159015051"/><text text-anchor="middle" pointer-events="none" font-size="8px" fill="#000000" x="60.72855299874884" y="26.516067584351703" transform="rotate(180 60.72855299874884 23.516067584351703)" font-family="sans-serif">road</text></g><g class="relationship" transform="translate(255.09425769229466 9.242060267130139) rotate(527.7367338663114)"><path class="outline" fill="#A5ABB6" stroke="none" d="M 25 0.5 L 30.051928413019553 0.5 L 30.051928413019553 -0.5 L 25 -0.5 Z M 91.77849091301955 0.5 L 96.8304193260391 0.5 L 96.8304193260391 3.5 L 103.8304193260391 0 L 96.8304193260391 -3.5 L 96.8304193260391 -0.5 L 91.77849091301955 -0.5 Z"/><text text-anchor="middle" pointer-events="none" font-size="8px" fill="#000000" x="60.91520966301955" y="3" transform="rotate(180 60.91520966301955 0)" font-family="sans-serif">PublicTransport</text></g><g class="relationship" transform="translate(255.09425769229466 9.242060267130139) rotate(527.7367338663114)"><path class="outline" fill="#A5ABB6" stroke="none" d="M 21.40063509461097,-12.933012701892217 L 21.90063509461097,-12.06698729810778 A 81.93205450584942 81.93205450584942 0 0 1 51.172035421030685,-22.204886104709615 L 51.02929974819742,-23.194646948399054 A 82.93205450584942 82.93205450584942 0 0 0 21.40063509461097,-12.933012701892217 Z M 70.4314237907835,-23.698065487166332 L 70.34020741506096,-22.70223439064442 A 81.93205450584942 81.93205450584942 0 0 1 100.09795524774104,-14.095939414927644 L 98.73470518188748,-11.423571689866161 L 106.56068828386009,-11.360417215446269 L 101.91562200221244,-17.65909638167629 L 100.55237193635888,-14.986728656614806 A 82.93205450584942 82.93205450584942 0 0 0 70.4314237907835,-23.698065487166332"/><text text-anchor="middle" pointer-events="none" font-size="8px" fill="#000000" x="60.72855299874883" y="-20.516067584351703" transform="rotate(180 60.72855299874883 -23.516067584351703)" font-family="sans-serif">trek</text></g><g class="relationship" transform="translate(129.20349691196438 36.606147934595356) rotate(189.76453252500102)"><path class="outline" fill="#A5ABB6" stroke="none" d="M 24.018736134675446,6.953439040707552 L 24.277555179777966,5.987513214418485 A 135.1178538468423 135.1178538468423 0 0 0 47.725927189747686,10.099324222273964 L 47.640648290098845,11.0956813416216 A 136.1178538468423 136.1178538468423 0 0 1 24.018736134675446,6.953439040707552 Z M 67.02951433809109,11.368971660747945 L 66.97235148230492,10.370606793618492 A 135.1178538468423 135.1178538468423 0 0 0 90.52729885388486,6.921317880762533 L 89.83282357453459,4.002807286919956 L 97.45290278607592,5.787293994585651 L 91.45326589301857,10.812665339219304 L 90.7587906136683,7.894154745376726 A 136.1178538468423 136.1178538468423 0 0 1 67.02951433809109,11.368971660747945"/><text text-anchor="middle" pointer-events="none" font-size="8px" fill="#000000" x="57.337255558179734" y="14.07807249229839" transform="rotate(180 57.337255558179734 11.07807249229839)" font-family="sans-serif">trek</text></g><g class="relationship" transform="translate(9.193800956836297 15.953371217935302) rotate(451.25330665514605)"><path class="outline" fill="#A5ABB6" stroke="none" d="M 24.018736134675446,6.953439040707552 L 24.277555179777966,5.987513214418485 A 115.25518599668975 115.25518599668975 0 0 0 42.73880574390403,9.352638735031874 L 42.64016387785406,10.34776173359144 A 116.25518599668975 116.25518599668975 0 0 1 24.018736134675446,6.953439040707552 Z M 62.0347877587827,10.644167870724033 L 61.96660159290745,9.646495255692813 A 115.25518599668975 115.25518599668975 0 0 0 80.52206403836018,6.847092534339462 L 79.83452174391026,3.926940895581205 L 87.45034157787111,5.729519120416019 L 81.43878709762676,10.740628052683807 L 80.75124480317683,7.820476413925548 A 116.25518599668975 116.25518599668975 0 0 1 62.0347877587827,10.644167870724033"/><text text-anchor="middle" pointer-events="none" font-size="8px" fill="#000000" x="52.33892375549744" y="13.401222509495284" transform="rotate(180 52.33892375549744 10.401222509495284)" font-family="sans-serif">trek</text></g><g class="relationship" transform="translate(6.748775578140402 127.71156707596836) rotate(422.85059489214046)"><path class="outline" fill="#A5ABB6" stroke="none" d="M 24.018736134675446,-6.953439040707552 L 24.277555179777966,-5.987513214418485 A 122.04424598920227 122.04424598920227 0 0 1 44.440235817689086,-9.610154366672901 L 44.34662473036029,-10.605763207698885 A 123.04424598920227 123.04424598920227 0 0 0 24.018736134675446,-6.953439040707552 Z M 63.739182062366716,-10.893854063809044 L 63.67518677667008,-9.895903862942987 A 122.04424598920227 122.04424598920227 0 0 1 83.9365801548254,-6.873792382529639 L 83.24654394196662,-3.9542290547452406 L 90.8639006217988,-5.7503017738232085 L 84.85662843863713,-10.766543486242169 L 84.16659222577834,-7.846980158457771 A 123.04424598920227 123.04424598920227 0 0 0 63.739182062366716,-10.893854063809044"/><text text-anchor="middle" pointer-events="none" font-size="8px" fill="#000000" x="54.04464536124039" y="-7.632549954928507" font-family="sans-serif">trek</text></g><g class="relationship" transform="translate(129.20349691196438 36.606147934595356) rotate(437.066146464702)"><path class="outline" fill="#A5ABB6" stroke="none" d="M 25 0.5 L 50.43299050941978 0.5 L 50.43299050941978 -0.5 L 25 -0.5 Z M 69.76892800941978 0.5 L 95.20191851883956 0.5 L 95.20191851883956 3.5 L 102.20191851883956 0 L 95.20191851883956 -3.5 L 95.20191851883956 -0.5 L 69.76892800941978 -0.5 Z"/><text text-anchor="middle" pointer-events="none" font-size="8px" fill="#000000" x="60.10095925941978" y="3" font-family="sans-serif">trek</text></g><g class="relationship" transform="translate(129.20349691196438 36.606147934595356) rotate(304.2024867399542)"><path class="outline" fill="#A5ABB6" stroke="none" d="M 25 0.5 L 40.33629089594256 0.5 L 40.33629089594256 -0.5 L 25 -0.5 Z M 59.67222839594256 0.5 L 75.00851929188512 0.5 L 75.00851929188512 3.5 L 82.00851929188512 0 L 75.00851929188512 -3.5 L 75.00851929188512 -0.5 L 59.67222839594256 -0.5 Z"/><text text-anchor="middle" pointer-events="none" font-size="8px" fill="#000000" x="50.00425964594256" y="3" font-family="sans-serif">trek</text></g><g class="relationship" transform="translate(9.193800956836297 15.953371217935302) rotate(505.65160002364826)"><path class="outline" fill="#A5ABB6" stroke="none" d="M 24.018736134675446,-6.953439040707552 L 24.277555179777966,-5.987513214418485 A 124.56125925172672 124.56125925172672 0 0 1 31.712447305869365,-7.73724691935962 L 31.513316900483193,-8.717219919829901 A 125.56125925172672 125.56125925172672 0 0 0 24.018736134675446,-6.953439040707552 Z M 77.89106099937692,-9.399121138862483 L 77.72082792135046,-8.4137173134459 A 124.56125925172672 124.56125925172672 0 0 1 85.20394837783643,-6.883326122101615 L 84.51302166769975,-3.9639734059640617 L 92.13092583384683,-5.7577225844722975 L 86.125183991352,-10.77579641028502 L 85.43425728121532,-7.856443694147466 A 125.56125925172672 125.56125925172672 0 0 0 77.89106099937692,-9.399121138862483"/><text text-anchor="middle" pointer-events="none" font-size="8px" fill="#000000" x="54.67777945204157" y="-7.718319265054561" transform="rotate(180 54.67777945204157 -10.71831926505456)" font-family="sans-serif">twowheeler</text></g><g class="relationship" transform="translate(-86.95719639790256 81.66222127802627) rotate(386.17060065608433)"><path class="outline" fill="#A5ABB6" stroke="none" d="M 21.40063509461097,12.933012701892217 L 21.90063509461097,12.06698729810778 A 56.78677690425141 56.78677690425141 0 0 0 26.24933641267703,14.333225317787601 L 25.82591588337667,15.239158568842555 A 57.78677690425141 57.78677690425141 0 0 1 21.40063509461097,12.933012701892217 Z M 71.39918646911319,16.68302541920405 L 71.03396168841039,15.752106056659372 A 56.78677690425141 56.78677690425141 0 0 0 75.51739692633,13.765690595842491 L 74.18486628691075,11.07787324806587 L 82.01105917771197,11.104421995160362 L 77.29410444555565,17.34944705954465 L 75.9615738061364,14.66162971176803 A 57.78677690425141 57.78677690425141 0 0 1 71.39918646911319,16.68302541920405"/><text text-anchor="middle" pointer-events="none" font-size="8px" fill="#000000" x="48.479955888790954" y="23.146243077740316" font-family="sans-serif">twowheeler</text></g><g class="relationship" transform="translate(9.193800956836297 15.953371217935302) rotate(505.65160002364826)"><path class="outline" fill="#A5ABB6" stroke="none" d="M 24.018736134675446,6.953439040707552 L 24.277555179777966,5.987513214418485 A 124.56125925172672 124.56125925172672 0 0 0 45.071911569255924,9.704972055273856 L 44.98003332512471,10.70074230400364 A 125.56125925172672 125.56125925172672 0 0 1 24.018736134675446,6.953439040707552 Z M 64.37185025212852,10.98586405493623 L 64.30928741273948,9.987823028160491 A 124.56125925172672 124.56125925172672 0 0 0 85.20394837783643,6.883326122101615 L 84.51302166769975,3.9639734059640617 L 92.13092583384683,5.7577225844722975 L 86.125183991352,10.77579641028502 L 85.43425728121532,7.856443694147466 A 125.56125925172672 125.56125925172672 0 0 1 64.37185025212852,10.98586405493623"/><text text-anchor="middle" pointer-events="none" font-size="8px" fill="#000000" x="54.677779452041584" y="13.71831926505456" transform="rotate(180 54.677779452041584 10.71831926505456)" font-family="sans-serif">trek</text></g><g class="relationship" transform="translate(-86.95719639790256 81.66222127802627) rotate(386.17060065608433)"><path class="outline" fill="#A5ABB6" stroke="none" d="M 25 0.5 L 37.69890916292524 0.5 L 37.69890916292524 -0.5 L 25 -0.5 Z M 59.71062791292524 0.5 L 72.40953707585048 0.5 L 72.40953707585048 3.5 L 79.40953707585048 0 L 72.40953707585048 -3.5 L 72.40953707585048 -0.5 L 59.71062791292524 -0.5 Z"/><text text-anchor="middle" pointer-events="none" font-size="8px" fill="#000000" x="48.70476853792524" y="3" font-family="sans-serif">road</text></g><g class="relationship" transform="translate(-86.95719639790256 81.66222127802627) rotate(386.17060065608433)"><path class="outline" fill="#A5ABB6" stroke="none" d="M 21.40063509461097,-12.933012701892217 L 21.90063509461097,-12.06698729810778 A 56.78677690425141 56.78677690425141 0 0 1 38.98796105148898,-18.53809241405729 L 38.788864305528016,-19.51807225351714 A 57.78677690425141 57.78677690425141 0 0 0 21.40063509461097,-12.933012701892217 Z M 58.191375642960104,-20.132788787437562 L 58.05471198875927,-19.142171280212658 A 56.78677690425141 56.78677690425141 0 0 1 75.51739692633,-13.765690595842491 L 74.18486628691075,-11.07787324806587 L 82.01105917771197,-11.104421995160362 L 77.29410444555565,-17.34944705954465 L 75.9615738061364,-14.66162971176803 A 57.78677690425141 57.78677690425141 0 0 0 58.191375642960104,-20.132788787437562"/><text text-anchor="middle" pointer-events="none" font-size="8px" fill="#000000" x="48.47995588879094" y="-17.14624307774031" font-family="sans-serif">trek</text></g><g class="relationship" transform="translate(-86.95719639790256 81.66222127802627) rotate(436.6210151005989)"><path class="outline" fill="#A5ABB6" stroke="none" d="M 25 0.5 L 48.68922900335698 0.5 L 48.68922900335698 -0.5 L 25 -0.5 Z M 68.02516650335699 0.5 L 91.71439550671396 0.5 L 91.71439550671396 3.5 L 98.71439550671396 0 L 91.71439550671396 -3.5 L 91.71439550671396 -0.5 L 68.02516650335699 -0.5 Z"/><text text-anchor="middle" pointer-events="none" font-size="8px" fill="#000000" x="58.35719775335698" y="3" font-family="sans-serif">trek</text></g><g class="relationship" transform="translate(-58.33078750456801 202.01910878124838) rotate(373.47706622000544)"><path class="outline" fill="#A5ABB6" stroke="none" d="M 25 0.5 L 47.31957116365376 0.5 L 47.31957116365376 -0.5 L 25 -0.5 Z M 66.65550866365376 0.5 L 88.97507982730752 0.5 L 88.97507982730752 3.5 L 95.97507982730752 0 L 88.97507982730752 -3.5 L 88.97507982730752 -0.5 L 66.65550866365376 -0.5 Z"/><text text-anchor="middle" pointer-events="none" font-size="8px" fill="#000000" x="56.98753991365376" y="3" font-family="sans-serif">trek</text></g></g><g class="layer nodes"><g class="node" transform="translate(255.09425769229466,9.242060267130139)"><circle class="outline" cx="0" cy="0" r="25" fill="#FF756E" stroke="#E06760" stroke-width="2px"/><text text-anchor="middle" pointer-events="none" y="5" font-size="10px" fill="#FFFFFF" font-family="sans-serif"> Darjeeling</text></g><g class="node" transform="translate(157.67459609218255,160.5808412649024)"><circle class="outline" cx="0" cy="0" r="25" fill="#FB95AF" stroke="#E0849B" stroke-width="2px"/><text text-anchor="middle" pointer-events="none" y="5" font-size="10px" fill="#FFFFFF" font-family="sans-serif"> BhikeBh…</text></g><g class="node" transform="translate(59.31303586647906,230.21309327910373)"><circle class="outline" cx="0" cy="0" r="25" fill="#DE9BF9" stroke="#BF85D6" stroke-width="2px"/><text text-anchor="middle" pointer-events="none" y="5" font-size="10px" fill="#FFFFFF" font-family="sans-serif"> Sandak…</text></g><g class="node" transform="translate(189.35504809971795,-51.895909051379896)"><circle class="outline" cx="0" cy="0" r="25" fill="#FB95AF" stroke="#E0849B" stroke-width="2px"/><text text-anchor="middle" pointer-events="none" y="5" font-size="10px" fill="#FFFFFF" font-family="sans-serif"> Tumbling</text></g><g class="node" transform="translate(231.40112703885293,75.8520535200195)"><circle class="outline" cx="0" cy="0" r="25" fill="#FB95AF" stroke="#E0849B" stroke-width="2px"/><text text-anchor="middle" pointer-events="none" y="5" font-size="10px" fill="#FFFFFF" font-family="sans-serif"> Gairibus</text></g><g class="node" transform="translate(129.20349691196438,36.606147934595356)"><circle class="outline" cx="0" cy="0" r="25" fill="#FF756E" stroke="#E06760" stroke-width="2px"/><text text-anchor="middle" pointer-events="none" y="5" font-size="10px" fill="#FFFFFF" font-family="sans-serif"> Rimbik</text></g><g class="node" transform="translate(9.193800956836297,15.953371217935302)"><circle class="outline" cx="0" cy="0" r="25" fill="#FB95AF" stroke="#E0849B" stroke-width="2px"/><text text-anchor="middle" pointer-events="none" y="5" font-size="10px" fill="#FFFFFF" font-family="sans-serif"> Sirikhola</text></g><g class="node" transform="translate(6.748775578140402,127.71156707596836)"><circle class="outline" cx="0" cy="0" r="25" fill="#FB95AF" stroke="#E0849B" stroke-width="2px"/><text text-anchor="middle" pointer-events="none" y="5" font-size="10px" fill="#FFFFFF" font-family="sans-serif"> Gurdum</text></g><g class="node" transform="translate(-86.95719639790256,81.66222127802627)"><circle class="outline" cx="0" cy="0" r="25" fill="#FB95AF" stroke="#E0849B" stroke-width="2px"/><text text-anchor="middle" pointer-events="none" y="5" font-size="10px" fill="#FFFFFF" font-family="sans-serif"> Rammam</text></g><g class="node" transform="translate(-58.33078750456801,202.01910878124838)"><circle class="outline" cx="0" cy="0" r="25" fill="#DE9BF9" stroke="#BF85D6" stroke-width="2px"/><text text-anchor="middle" pointer-events="none" y="5" font-size="10px" fill="#FFFFFF" font-family="sans-serif"> Sabargr…</text></g></g></svg>