<svg xmlns="http://www.w3.org/2000/svg" width="1029.7587890625" height="374.6036376953125" viewBox="-371.1269226074219 -105.82518005371094 1029.7587890625 374.6036376953125"><title>Neo4j Graph Visualization</title><desc>Created using Neo4j (http://www.neo4j.com/)</desc><g class="layer relationships"><g class="relationship" transform="translate(-151.77739971361385 147.34948105488243) rotate(363.6293711851053)"><path class="outline" fill="#A5ABB6" stroke="none" d="M 24.018736134675446,-6.953439040707552 L 24.277555179777966,-5.987513214418485 A 507.2513460908061 507.2513460908061 0 0 1 129.48646255332767,-22.600930634983797 L 129.43505332228352,-23.599608306188827 A 508.2513460908061 508.2513460908061 0 0 0 24.018736134675446,-6.953439040707552 Z M 175.92867638508784,-23.86352721010195 L 175.88860799699648,-22.864330270417042 A 507.2513460908061 507.2513460908061 0 0 1 281.27933999535907,-7.4463719757722515 L 280.53583003666364,-4.539966473898719 L 288.18487115951325,-6.195916322461861 L 282.270686606953,-11.321579311603628 L 281.5271766482576,-8.415173809730096 A 508.2513460908061 508.2513460908061 0 0 0 175.92867638508784,-23.86352721010195"/><text text-anchor="middle" pointer-events="none" font-size="8px" fill="#000000" x="152.6816835720384" y="-20.763503479502788" font-family="sans-serif">twowheeler</text></g><g class="relationship" transform="translate(160.00096092279261 167.12537572332468) rotate(367.5840704411828)"><path class="outline" fill="#A5ABB6" stroke="none" d="M 24.018736134675446,-6.953439040707552 L 24.277555179777966,-5.987513214418485 A 819.8355643388753 819.8355643388753 0 0 1 210.16191504536621,-33.500626470603834 L 210.12982971120667,-34.50011160372583 A 820.8355643388753 820.8355643388753 0 0 0 24.018736134675446,-6.953439040707552 Z M 256.61644891182345,-34.67537673023003 L 256.59190095519955,-33.67567807672208 A 819.8355643388753 819.8355643388753 0 0 1 442.678434785981,-7.564979684441318 L 441.92384997407703,-4.6614298292392515 L 449.57914858343645,-6.28820676586587 L 443.68454786851953,-11.436379491377407 L 442.9299630566156,-8.53282963617534 A 820.8355643388753 820.8355643388753 0 0 0 256.61644891182345,-34.67537673023003"/><text text-anchor="middle" pointer-events="none" font-size="8px" fill="#000000" x="233.37378342408167" y="-31.416902333222765" font-family="sans-serif">twowheeler</text></g><g class="relationship" transform="translate(629.6319001293026 229.65463367145242) rotate(261.22484787889505)"><path class="outline" fill="#A5ABB6" stroke="none" d="M 24.018736134675446,6.953439040707552 L 24.277555179777966,5.987513214418485 A 502.7991910935963 502.7991910935963 0 0 0 128.33916050192025,22.443539490939088 L 128.28730600084535,23.44219414131544 A 503.7991910935963 503.7991910935963 0 0 1 24.018736134675446,6.953439040707552 Z M 174.7810344507245,23.708025257369513 L 174.74060272095224,22.708842954069667 A 502.7991910935963 502.7991910935963 0 0 0 278.9835753840731,7.443812544974597 L 278.24030441689325,4.537345915311096 L 285.88920934781794,6.193924726498825 L 279.97460334031297,11.319101384525931 L 279.2313323731331,8.412634754862431 A 503.7991910935963 503.7991910935963 0 0 1 174.7810344507245,23.708025257369513"/><text text-anchor="middle" pointer-events="none" font-size="8px" fill="#000000" x="151.53396071048945" y="26.61175381910914" transform="rotate(180 151.53396071048945 23.61175381910914)" font-family="sans-serif">twowheeler</text></g><g class="relationship" transform="translate(-342.12690787294395 209.24069320168402) rotate(341.988318710989)"><path class="outline" fill="#A5ABB6" stroke="none" d="M 21.40063509461097,12.933012701892217 L 21.90063509461097,12.06698729810778 A 154.36389102346345 154.36389102346345 0 0 0 85.51017544346011,32.14999449560774 L 85.42225070229885,33.14612161595521 A 155.36389102346345 155.36389102346345 0 0 1 21.40063509461097,12.933012701892217 Z M 107.48327620996605,33.52054361816745 L 107.42920511565782,32.522006529842585 A 154.36389102346345 154.36389102346345 0 0 0 171.68361570342697,14.609119506666088 L 170.2726438508313,11.96163798053928 L 178.09623457315547,11.75809877163065 L 173.56491150688788,18.139094874835166 L 172.1539396542922,15.491613348708357 A 155.36389102346345 155.36389102346345 0 0 1 107.48327620996605,33.52054361816745"/><text text-anchor="middle" pointer-events="none" font-size="8px" fill="#000000" x="96.45459313338833" y="36.22552763665327" font-family="sans-serif">road</text></g><g class="relationship" transform="translate(-342.12690787294395 209.24069320168402) rotate(341.988318710989)"><path class="outline" fill="#A5ABB6" stroke="none" d="M 25 0.5 L 65.71600906210612 0.5 L 65.71600906210612 -0.5 L 25 -0.5 Z M 127.44257156210612 0.5 L 168.15858062421225 0.5 L 168.15858062421225 3.5 L 175.15858062421225 0 L 168.15858062421225 -3.5 L 168.15858062421225 -0.5 L 127.44257156210612 -0.5 Z"/><text text-anchor="middle" pointer-events="none" font-size="8px" fill="#000000" x="96.57929031210612" y="3" font-family="sans-serif">PublicTransport</text></g><g class="relationship" transform="translate(-342.12690787294395 209.24069320168402) rotate(341.988318710989)"><path class="outline" fill="#A5ABB6" stroke="none" d="M 21.40063509461097,-12.933012701892217 L 21.90063509461097,-12.06698729810778 A 154.36389102346345 154.36389102346345 0 0 1 86.83907169794549,-32.26150881957854 L 86.75975581113272,-33.25835835190479 A 155.36389102346345 155.36389102346345 0 0 0 21.40063509461097,-12.933012701892217 Z M 106.14273273221802,-33.587328237058315 L 106.09729004872595,-32.58836128939838 A 154.36389102346345 154.36389102346345 0 0 1 171.68361570342697,-14.609119506666088 L 170.2726438508313,-11.96163798053928 L 178.09623457315547,-11.75809877163065 L 173.56491150688788,-18.139094874835166 L 172.1539396542922,-15.491613348708357 A 155.36389102346345 155.36389102346345 0 0 0 106.14273273221802,-33.587328237058315"/><text text-anchor="middle" pointer-events="none" font-size="8px" fill="#000000" x="96.45459313338836" y="-30.22552763665327" font-family="sans-serif">trek</text></g><g class="relationship" transform="translate(-151.77739971361385 147.34948105488243) rotate(363.6293711851053)"><path class="outline" fill="#A5ABB6" stroke="none" d="M 24.018736134675446,6.953439040707552 L 24.277555179777966,5.987513214418485 A 507.2513460908061 507.2513460908061 0 0 0 143.02733451442145,23.11674218183026 L 143.0026198837277,24.116436728694282 A 508.2513460908061 508.2513460908061 0 0 1 24.018736134675446,6.953439040707552 Z M 162.35611683091904,24.226295960234268 L 162.3427528670433,23.226385261986934 A 507.2513460908061 507.2513460908061 0 0 0 281.27933999535907,7.4463719757722515 L 280.53583003666364,4.539966473898719 L 288.18487115951325,6.195916322461861 L 282.270686606953,11.321579311603628 L 281.5271766482576,8.415173809730096 A 508.2513460908061 508.2513460908061 0 0 1 162.35611683091904,24.226295960234268"/><text text-anchor="middle" pointer-events="none" font-size="8px" fill="#000000" x="152.68168357203834" y="26.763503479502788" font-family="sans-serif">trek</text></g><g class="relationship" transform="translate(160.00096092279261 167.12537572332468) rotate(367.5840704411828)"><path class="outline" fill="#A5ABB6" stroke="none" d="M 24.018736134675446,6.953439040707552 L 24.277555179777966,5.987513214418485 A 819.8355643388753 819.8355643388753 0 0 0 223.71409945901297,33.82354419546823 L 223.6985444938727,34.82342320967916 A 820.8355643388753 820.8355643388753 0 0 1 24.018736134675446,6.953439040707552 Z M 243.04568198987033,34.89636631801966 L 243.03766690232706,33.896398439349696 A 819.8355643388753 819.8355643388753 0 0 0 442.678434785981,7.564979684441318 L 441.92384997407703,4.6614298292392515 L 449.57914858343645,6.28820676586587 L 443.68454786851953,11.436379491377407 L 442.9299630566156,8.53282963617534 A 820.8355643388753 820.8355643388753 0 0 1 243.04568198987033,34.89636631801966"/><text text-anchor="middle" pointer-events="none" font-size="8px" fill="#000000" x="233.37378342408158" y="37.416902333222765" font-family="sans-serif">trek</text></g><g class="relationship" transform="translate(160.00096092279261 167.12537572332468) rotate(334.98156564621627)"><path class="outline" fill="#A5ABB6" stroke="none" d="M 24.018736134675446,-6.953439040707552 L 24.277555179777966,-5.987513214418485 A 467.57032304185054 467.57032304185054 0 0 1 119.26370235969345,-21.194470664821893 L 119.20803168072754,-22.192919850060377 A 468.57032304185054 468.57032304185054 0 0 0 24.018736134675446,-6.953439040707552 Z M 165.70255841099095,-22.474912903833 L 165.65900273172653,-21.47586190273057 A 467.57032304185054 467.57032304185054 0 0 1 260.8226180603471,-7.422178094943186 L 260.0813672623858,-4.515195595078126 L 267.7291190263592,-6.177089983010966 L 261.8109524576289,-11.298154761429934 L 261.0697016596676,-8.391172261564874 A 468.57032304185054 468.57032304185054 0 0 0 165.70255841099095,-22.474912903833"/><text text-anchor="middle" pointer-events="none" font-size="8px" fill="#000000" x="142.45482766799532" y="-19.410976830374068" font-family="sans-serif">twowheeler</text></g><g class="relationship" transform="translate(424.56140865161115 43.65516895236078) rotate(402.20810978251654)"><path class="outline" fill="#A5ABB6" stroke="none" d="M 21.40063509461097,12.933012701892217 L 21.90063509461097,12.06698729810778 A 231.6143872177637 231.6143872177637 0 0 0 111.71516036233933,41.63431077502739 L 111.6029364687661,42.627993721299106 A 232.6143872177637 232.6143872177637 0 0 1 21.40063509461097,12.933012701892217 Z M 158.08660410102428,43.20304463361808 L 157.99899655601695,42.20688956634302 A 231.6143872177637 231.6143872177637 0 0 0 248.5174797989224,14.870471401922588 L 247.08221078442142,12.23608288539482 L 254.90359783990402,11.960575120841586 L 250.43117181825704,18.38298942395961 L 248.99590280375605,15.748600907431845 A 232.6143872177637 232.6143872177637 0 0 1 158.08660410102428,43.20304463361808"/><text text-anchor="middle" pointer-events="none" font-size="8px" fill="#000000" x="134.83655403357105" y="46.579671668226865" font-family="sans-serif">twowheeler</text></g><g class="relationship" transform="translate(160.00096092279261 167.12537572332468) rotate(334.98156564621627)"><path class="outline" fill="#A5ABB6" stroke="none" d="M 24.018736134675446,6.953439040707552 L 24.277555179777966,5.987513214418485 A 467.57032304185054 467.57032304185054 0 0 0 132.80168806847013,21.75268323058509 L 132.77497129235397,22.752326273813026 A 468.57032304185054 468.57032304185054 0 0 1 24.018736134675446,6.953439040707552 Z M 152.12983144737532,22.869715061360466 L 152.11524202204586,21.869821492689994 A 467.57032304185054 467.57032304185054 0 0 0 260.8226180603471,7.422178094943186 L 260.0813672623858,4.515195595078126 L 267.7291190263592,6.177089983010966 L 261.8109524576289,11.298154761429934 L 261.0697016596676,8.391172261564874 A 468.57032304185054 468.57032304185054 0 0 1 152.12983144737532,22.869715061360466"/><text text-anchor="middle" pointer-events="none" font-size="8px" fill="#000000" x="142.45482766799546" y="25.410976830374068" font-family="sans-serif">trek</text></g><g class="relationship" transform="translate(424.56140865161115 43.65516895236078) rotate(402.20810978251654)"><path class="outline" fill="#A5ABB6" stroke="none" d="M 25 0.5 L 123.92255836381776 0.5 L 123.92255836381776 -0.5 L 25 -0.5 Z M 145.93427711381776 0.5 L 244.8568354776355 0.5 L 244.8568354776355 3.5 L 251.8568354776355 0 L 244.8568354776355 -3.5 L 244.8568354776355 -0.5 L 145.93427711381776 -0.5 Z"/><text text-anchor="middle" pointer-events="none" font-size="8px" fill="#000000" x="134.92841773881776" y="3" font-family="sans-serif">road</text></g><g class="relationship" transform="translate(424.56140865161115 43.65516895236078) rotate(402.20810978251654)"><path class="outline" fill="#A5ABB6" stroke="none" d="M 21.40063509461097,-12.933012701892217 L 21.90063509461097,-12.06698729810778 A 231.6143872177637 231.6143872177637 0 0 1 125.20160820414851,-42.75954270805582 L 125.14761233347065,-43.758083866921964 A 232.6143872177637 232.6143872177637 0 0 0 21.40063509461097,-12.933012701892217 Z M 144.51811693897812,-43.99771698781936 L 144.48883978068648,-42.99814565569625 A 231.6143872177637 231.6143872177637 0 0 1 248.5174797989224,-14.870471401922588 L 247.08221078442142,-12.23608288539482 L 254.90359783990402,-11.960575120841586 L 250.43117181825704,-18.38298942395961 L 248.99590280375605,-15.748600907431845 A 232.6143872177637 232.6143872177637 0 0 0 144.51811693897812,-43.99771698781936"/><text text-anchor="middle" pointer-events="none" font-size="8px" fill="#000000" x="134.83655403357105" y="-40.579671668226865" font-family="sans-serif">trek</text></g><g class="relationship" transform="translate(629.6319001293026 229.65463367145242) rotate(261.22484787889505)"><path class="outline" fill="#A5ABB6" stroke="none" d="M 24.018736134675446,-6.953439040707552 L 24.277555179777966,-5.987513214418485 A 502.7991910935963 502.7991910935963 0 0 1 141.87973747811728,-22.963783625919802 L 141.85481336439392,-23.96347297194444 A 503.7991910935963 503.7991910935963 0 0 0 24.018736134675446,-6.953439040707552 Z M 161.2084534172109,-24.074128750830766 L 161.1949621456082,-23.074219762176995 A 502.7991910935963 502.7991910935963 0 0 1 278.9835753840731,-7.443812544974597 L 278.24030441689325,-4.537345915311096 L 285.88920934781794,-6.193924726498825 L 279.97460334031297,-11.319101384525931 L 279.2313323731331,-8.412634754862431 A 503.7991910935963 503.7991910935963 0 0 0 161.2084534172109,-24.074128750830766"/><text text-anchor="middle" pointer-events="none" font-size="8px" fill="#000000" x="151.53396071048925" y="-20.61175381910914" transform="rotate(180 151.53396071048925 -23.61175381910914)" font-family="sans-serif">trek</text></g><g class="relationship" transform="translate(102.12482803069531 -55.611532896171255) rotate(357.4704936054454)"><path class="outline" fill="#A5ABB6" stroke="none" d="M 25 0.5 L 227.16499513631328 0.5 L 227.16499513631328 -0.5 L 25 -0.5 Z M 246.50093263631328 0.5 L 448.66592777262656 0.5 L 448.66592777262656 3.5 L 455.66592777262656 0 L 448.66592777262656 -3.5 L 448.66592777262656 -0.5 L 246.50093263631328 -0.5 Z"/><text text-anchor="middle" pointer-events="none" font-size="8px" fill="#000000" x="236.83296388631328" y="3" font-family="sans-serif">trek</text></g><g class="relationship" transform="translate(-342.12690787294395 209.24069320168402) rotate(272.05468152058575)"><path class="outline" fill="#A5ABB6" stroke="none" d="M 24.018736134675446,-6.953439040707552 L 24.277555179777966,-5.987513214418485 A 338.45014783629426 338.45014783629426 0 0 1 99.58411747096534,-17.296679489664257 L 99.54780257535904,-18.29601988630452 A 339.45014783629426 339.45014783629426 0 0 0 24.018736134675446,-6.953439040707552 Z M 118.9090487864479,-18.447033036734922 L 118.88832659918796,-17.447247764311328 A 338.45014783629426 338.45014783629426 0 0 1 194.36213362298062,-7.314132779621463 L 193.63097216632818,-4.404596231594289 L 201.27291247781943,-6.093012138770304 L 195.33701556518386,-11.193514843657695 L 194.60585410853142,-8.283978295630522 A 339.45014783629426 339.45014783629426 0 0 0 118.9090487864479,-18.447033036734922"/><text text-anchor="middle" pointer-events="none" font-size="8px" fill="#000000" x="109.23124852379065" y="-15.009612575223684" font-family="sans-serif">trek</text></g><g class="relationship" transform="translate(-334.0413120500763 -16.133363032845295) rotate(356.9418489034008)"><path class="outline" fill="#A5ABB6" stroke="none" d="M 21.40063509461097,-12.933012701892217 L 21.90063509461097,-12.06698729810778 A 186.26656915900082 186.26656915900082 0 0 1 101.32919192060079,-36.51712277881569 L 101.25561603516205,-37.51441240028075 A 187.26656915900082 187.26656915900082 0 0 0 21.40063509461097,-12.933012701892217 Z M 123.31110407735582,-37.83896043888251 L 123.26690406642798,-36.83993773692123 A 186.26656915900082 186.26656915900082 0 0 1 203.38048559560633,-14.737475904533497 L 201.95758024570299,-12.096388937919862 L 209.78017274268873,-11.85754458252795 L 205.27769272881082,-18.25892519335168 L 203.85478737890747,-15.617838226738044 A 187.26656915900082 187.26656915900082 0 0 0 123.31110407735582,-37.83896043888251"/><text text-anchor="middle" pointer-events="none" font-size="8px" fill="#000000" x="112.28593413443954" y="-34.5017583849623" font-family="sans-serif">road</text></g><g class="relationship" transform="translate(-102.58217155471561 -28.499194787555325) rotate(352.4553932757998)"><path class="outline" fill="#A5ABB6" stroke="none" d="M 21.40063509461097,12.933012701892217 L 21.90063509461097,12.06698729810778 A 160.76111188747694 160.76111188747694 0 0 0 88.67885569733258,33.02839760379429 L 88.59424359692277,34.02481157020797 A 161.76111188747694 161.76111188747694 0 0 1 21.40063509461097,12.933012701892217 Z M 110.65408364328941,34.38805299679554 L 110.6023227935571,33.38939348803642 A 160.76111188747694 160.76111188747694 0 0 0 178.03446318944728,14.63791593297269 L 176.62081399415953,11.991863032393729 L 184.44419482334615,11.780409960731134 L 179.91932878316427,18.16598646707797 L 178.50567958787653,15.519933566499011 A 161.76111188747694 161.76111188747694 0 0 1 110.65408364328941,34.38805299679554"/><text text-anchor="middle" pointer-events="none" font-size="8px" fill="#000000" x="99.62619550259954" y="37.08303500687582" font-family="sans-serif">road</text></g><g class="relationship" transform="translate(-151.77739971361385 147.34948105488243) rotate(221.8907317145776)"><path class="outline" fill="#A5ABB6" stroke="none" d="M 25 0.5 L 109.25218282971946 0.5 L 109.25218282971946 -0.5 L 25 -0.5 Z M 128.58812032971946 0.5 L 212.84030315943892 0.5 L 212.84030315943892 3.5 L 219.84030315943892 0 L 212.84030315943892 -3.5 L 212.84030315943892 -0.5 L 128.58812032971946 -0.5 Z"/><text text-anchor="middle" pointer-events="none" font-size="8px" fill="#000000" x="118.92015157971946" y="3" transform="rotate(180 118.92015157971946 0)" font-family="sans-serif">trek</text></g><g class="relationship" transform="translate(-342.12690787294395 209.24069320168402) rotate(272.05468152058575)"><path class="outline" fill="#A5ABB6" stroke="none" d="M 24.018736134675446,6.953439040707552 L 24.277555179777966,5.987513214418485 A 338.45014783629426 338.45014783629426 0 0 0 98.24918081376043,17.245531130635015 L 98.20892165438077,18.244720402037615 A 339.45014783629426 339.45014783629426 0 0 1 24.018736134675446,6.953439040707552 Z M 120.24856701122165,18.41662443359735 L 120.22389868272917,17.416928743114795 A 338.45014783629426 338.45014783629426 0 0 0 194.36213362298062,7.314132779621463 L 193.63097216632818,4.404596231594289 L 201.27291247781943,6.093012138770304 L 195.33701556518386,11.193514843657695 L 194.60585410853142,8.283978295630522 A 339.45014783629426 339.45014783629426 0 0 1 120.24856701122165,18.41662443359735"/><text text-anchor="middle" pointer-events="none" font-size="8px" fill="#000000" x="109.23124852379068" y="21.009612575223684" font-family="sans-serif">road</text></g><g class="relationship" transform="translate(-334.0413120500763 -16.133363032845295) rotate(356.9418489034008)"><path class="outline" fill="#A5ABB6" stroke="none" d="M 25 0.5 L 89.1621935239012 0.5 L 89.1621935239012 -0.5 L 25 -0.5 Z M 135.62703727390118 0.5 L 199.7892307978024 0.5 L 199.7892307978024 3.5 L 206.7892307978024 0 L 199.7892307978024 -3.5 L 199.7892307978024 -0.5 L 135.62703727390118 -0.5 Z"/><text text-anchor="middle" pointer-events="none" font-size="8px" fill="#000000" x="112.3946153989012" y="3" font-family="sans-serif">twowheeler</text></g><g class="relationship" transform="translate(-334.0413120500763 -16.133363032845295) rotate(356.9418489034008)"><path class="outline" fill="#A5ABB6" stroke="none" d="M 21.40063509461097,12.933012701892217 L 21.90063509461097,12.06698729810778 A 186.26656915900082 186.26656915900082 0 0 0 102.6602245904251,36.61052875287402 L 102.59379455341119,37.608319838313406 A 187.26656915900082 187.26656915900082 0 0 1 21.40063509461097,12.933012701892217 Z M 121.97074184334524,37.8934529636837 L 121.93369934184383,36.89413927265244 A 186.26656915900082 186.26656915900082 0 0 0 203.38048559560633,14.737475904533497 L 201.95758024570299,12.096388937919862 L 209.78017274268873,11.85754458252795 L 205.27769272881082,18.25892519335168 L 203.85478737890747,15.617838226738044 A 187.26656915900082 187.26656915900082 0 0 1 121.97074184334524,37.8934529636837"/><text text-anchor="middle" pointer-events="none" font-size="8px" fill="#000000" x="112.2859341344396" y="40.5017583849623" font-family="sans-serif">trek</text></g><g class="relationship" transform="translate(-102.58217155471561 -28.499194787555325) rotate(352.4553932757998)"><path class="outline" fill="#A5ABB6" stroke="none" d="M 25 0.5 L 76.51489595575208 0.5 L 76.51489595575208 -0.5 L 25 -0.5 Z M 122.97973970575208 0.5 L 174.49463566150416 0.5 L 174.49463566150416 3.5 L 181.49463566150416 0 L 174.49463566150416 -3.5 L 174.49463566150416 -0.5 L 122.97973970575208 -0.5 Z"/><text text-anchor="middle" pointer-events="none" font-size="8px" fill="#000000" x="99.74731783075208" y="3" font-family="sans-serif">twowheeler</text></g><g class="relationship" transform="translate(-102.58217155471561 -28.499194787555325) rotate(352.4553932757998)"><path class="outline" fill="#A5ABB6" stroke="none" d="M 21.40063509461097,-12.933012701892217 L 21.90063509461097,-12.06698729810778 A 160.76111188747694 160.76111188747694 0 0 1 90.0082681457262,-33.13573428147471 L 89.93192553557299,-34.132815926012924 A 161.76111188747694 161.76111188747694 0 0 0 21.40063509461097,-12.933012701892217 Z M 109.31357101806887,-34.45195770310097 L 109.27009715777164,-33.452903138289415 A 160.76111188747694 160.76111188747694 0 0 1 178.03446318944728,-14.63791593297269 L 176.62081399415953,-11.991863032393729 L 184.44419482334615,-11.780409960731134 L 179.91932878316427,-18.16598646707797 L 178.50567958787653,-15.519933566499011 A 161.76111188747694 161.76111188747694 0 0 0 109.31357101806887,-34.45195770310097"/><text text-anchor="middle" pointer-events="none" font-size="8px" fill="#000000" x="99.62619550259959" y="-31.083035006875818" font-family="sans-serif">trek</text></g><g class="relationship" transform="translate(-151.77739971361385 147.34948105488243) rotate(321.36231997623247)"><path class="outline" fill="#A5ABB6" stroke="none" d="M 25 0.5 L 149.35857864885023 0.5 L 149.35857864885023 -0.5 L 25 -0.5 Z M 168.69451614885023 0.5 L 293.05309479770045 0.5 L 293.05309479770045 3.5 L 300.05309479770045 0 L 293.05309479770045 -3.5 L 293.05309479770045 -0.5 L 168.69451614885023 -0.5 Z"/><text text-anchor="middle" pointer-events="none" font-size="8px" fill="#000000" x="159.02654739885023" y="3" font-family="sans-serif">trek</text></g><g class="relationship" transform="translate(424.56140865161115 43.65516895236078) rotate(220.8419339666296)"><path class="outline" fill="#A5ABB6" stroke="none" d="M 25 0.5 L 39.77747564425754 0.5 L 39.77747564425754 -0.5 L 25 -0.5 Z M 59.11341314425754 0.5 L 73.89088878851508 0.5 L 73.89088878851508 3.5 L 80.89088878851508 0 L 73.89088878851508 -3.5 L 73.89088878851508 -0.5 L 59.11341314425754 -0.5 Z"/><text text-anchor="middle" pointer-events="none" font-size="8px" fill="#000000" x="49.44544439425754" y="3" transform="rotate(180 49.44544439425754 0)" font-family="sans-serif">trek</text></g><g class="relationship" transform="translate(344.4531909850202 -25.594768164605313) rotate(347.84573850002835)"><path class="outline" fill="#A5ABB6" stroke="none" d="M 25 0.5 L 108.49377491523438 0.5 L 108.49377491523438 -0.5 L 25 -0.5 Z M 127.82971241523438 0.5 L 211.32348733046877 0.5 L 211.32348733046877 3.5 L 218.32348733046877 0 L 211.32348733046877 -3.5 L 211.32348733046877 -0.5 L 127.82971241523438 -0.5 Z"/><text text-anchor="middle" pointer-events="none" font-size="8px" fill="#000000" x="118.16174366523438" y="3" font-family="sans-serif">trek</text></g></g><g class="layer nodes"><g class="node" transform="translate(-151.77739971361385,147.34948105488243)"><circle class="outline" cx="0" cy="0" r="25" fill="#FF756E" stroke="#E06760" stroke-width="2px"/><text text-anchor="middle" pointer-events="none" y="5" font-size="10px" fill="#FFFFFF" font-family="sans-serif"> Rimbik</text></g><g class="node" transform="translate(-342.12690787294395,209.24069320168402)"><circle class="outline" cx="0" cy="0" r="25" fill="#FF756E" stroke="#E06760" stroke-width="2px"/><text text-anchor="middle" pointer-events="none" y="5" font-size="10px" fill="#FFFFFF" font-family="sans-serif"> Darjeeling</text></g><g class="node" transform="translate(582.3224073388528,-76.82518293819822)"><circle class="outline" cx="0" cy="0" r="25" fill="#DE9BF9" stroke="#BF85D6" stroke-width="2px"/><text text-anchor="middle" pointer-events="none" y="5" font-size="10px" fill="#FFFFFF" font-family="sans-serif"> Sandak…</text></g><g class="node" transform="translate(160.00096092279261,167.12537572332468)"><circle class="outline" cx="0" cy="0" r="25" fill="#FB95AF" stroke="#E0849B" stroke-width="2px"/><text text-anchor="middle" pointer-events="none" y="5" font-size="10px" fill="#FFFFFF" font-family="sans-serif"> Sirikhola</text></g><g class="node" transform="translate(629.6319001293026,229.65463367145242)"><circle class="outline" cx="0" cy="0" r="25" fill="#FB95AF" stroke="#E0849B" stroke-width="2px"/><text text-anchor="middle" pointer-events="none" y="5" font-size="10px" fill="#FFFFFF" font-family="sans-serif"> Gurdum</text></g><g class="node" transform="translate(424.56140865161115,43.65516895236078)"><circle class="outline" cx="0" cy="0" r="25" fill="#FB95AF" stroke="#E0849B" stroke-width="2px"/><text text-anchor="middle" pointer-events="none" y="5" font-size="10px" fill="#FFFFFF" font-family="sans-serif"> Rammam</text></g><g class="node" transform="translate(102.12482803069531,-55.611532896171255)"><circle class="outline" cx="0" cy="0" r="25" fill="#FB95AF" stroke="#E0849B" stroke-width="2px"/><text text-anchor="middle" pointer-events="none" y="5" font-size="10px" fill="#FFFFFF" font-family="sans-serif"> BhikeBh…</text></g><g class="node" transform="translate(-334.0413120500763,-16.133363032845295)"><circle class="outline" cx="0" cy="0" r="25" fill="#FB95AF" stroke="#E0849B" stroke-width="2px"/><text text-anchor="middle" pointer-events="none" y="5" font-size="10px" fill="#FFFFFF" font-family="sans-serif"> Tumbling</text></g><g class="node" transform="translate(-102.58217155471561,-28.499194787555325)"><circle class="outline" cx="0" cy="0" r="25" fill="#FB95AF" stroke="#E0849B" stroke-width="2px"/><text text-anchor="middle" pointer-events="none" y="5" font-size="10px" fill="#FFFFFF" font-family="sans-serif"> Gairibus</text></g><g class="node" transform="translate(344.4531909850202,-25.594768164605313)"><circle class="outline" cx="0" cy="0" r="25" fill="#DE9BF9" stroke="#BF85D6" stroke-width="2px"/><text text-anchor="middle" pointer-events="none" y="5" font-size="10px" fill="#FFFFFF" font-family="sans-serif"> Sabargr…</text></g></g></svg>