<svg xmlns="http://www.w3.org/2000/svg" width="352.7933654785156" height="362.13519287109375" viewBox="-100.8848876953125 -104.67048645019531 352.7933654785156 362.13519287109375"><title>Neo4j Graph Visualization</title><desc>Created using Neo4j (http://www.neo4j.com/)</desc><g class="layer relationships"><g class="relationship" transform="translate(89.6008886722128 228.4647327782607) rotate(262.9720169156947)"><path class="outline" fill="#A5ABB6" stroke="none" d="M 25 0.5 L 58.1494701379399 0.5 L 58.1494701379399 -0.5 L 25 -0.5 Z M 93.9229076379399 0.5 L 127.0723777758798 0.5 L 127.0723777758798 3.5 L 134.0723777758798 0 L 127.0723777758798 -3.5 L 127.0723777758798 -0.5 L 93.9229076379399 -0.5 Z"/><text text-anchor="middle" pointer-events="none" font-size="8px" fill="#000000" x="76.0361888879399" y="3" transform="rotate(180 76.0361888879399 0)" font-family="sans-serif">WROTE</text></g><g class="relationship" transform="translate(136.60826047653708 190.96804875741225) rotate(241.0938288909299)"><path class="outline" fill="#A5ABB6" stroke="none" d="M 25 0.5 L 41.81113640904424 0.5 L 41.81113640904424 -0.5 L 25 -0.5 Z M 88.70176140904424 0.5 L 105.51289781808848 0.5 L 105.51289781808848 3.5 L 112.51289781808848 0 L 105.51289781808848 -3.5 L 105.51289781808848 -0.5 L 88.70176140904424 -0.5 Z"/><text text-anchor="middle" pointer-events="none" font-size="8px" fill="#000000" x="65.25644890904424" y="3" transform="rotate(180 65.25644890904424 0)" font-family="sans-serif">DIRECTED</text></g><g class="relationship" transform="translate(195.48505823033628 172.99734167273738) rotate(219.24910592238933)"><path class="outline" fill="#A5ABB6" stroke="none" d="M 25 0.5 L 54.65038573248219 0.5 L 54.65038573248219 -0.5 L 25 -0.5 Z M 100.21288573248219 0.5 L 129.86327146496438 0.5 L 129.86327146496438 3.5 L 136.86327146496438 0 L 129.86327146496438 -3.5 L 129.86327146496438 -0.5 L 100.21288573248219 -0.5 Z"/><text text-anchor="middle" pointer-events="none" font-size="8px" fill="#000000" x="77.43163573248219" y="3" transform="rotate(180 77.43163573248219 0)" font-family="sans-serif">ACTED_IN</text></g><g class="relationship" transform="translate(168.88543759891658 119.23971722480388) rotate(206.2290849261002)"><path class="outline" fill="#A5ABB6" stroke="none" d="M 25 0.5 L 33.65450015846797 0.5 L 33.65450015846797 -0.5 L 25 -0.5 Z M 69.42793765846797 0.5 L 78.08243781693594 0.5 L 78.08243781693594 3.5 L 85.08243781693594 0 L 78.08243781693594 -3.5 L 78.08243781693594 -0.5 L 69.42793765846797 -0.5 Z"/><text text-anchor="middle" pointer-events="none" font-size="8px" fill="#000000" x="51.54121890846797" y="3" transform="rotate(180 51.54121890846797 0)" font-family="sans-serif">WROTE</text></g><g class="relationship" transform="translate(222.90851062067952 93.19712057694821) rotate(188.41848019908116)"><path class="outline" fill="#A5ABB6" stroke="none" d="M 25 0.5 L 50.936143381927806 0.5 L 50.936143381927806 -0.5 L 25 -0.5 Z M 96.4986433819278 0.5 L 122.43478676385561 0.5 L 122.43478676385561 3.5 L 129.4347867638556 0 L 122.43478676385561 -3.5 L 122.43478676385561 -0.5 L 96.4986433819278 -0.5 Z"/><text text-anchor="middle" pointer-events="none" font-size="8px" fill="#000000" x="73.7173933819278" y="3" transform="rotate(180 73.7173933819278 0)" font-family="sans-serif">ACTED_IN</text></g><g class="relationship" transform="translate(218.65671137479436 33.35047275590941) rotate(525.9247943772849)"><path class="outline" fill="#A5ABB6" stroke="none" d="M 25 0.5 L 50.27671210523536 0.5 L 50.27671210523536 -0.5 L 25 -0.5 Z M 95.83921210523536 0.5 L 121.11592421047072 0.5 L 121.11592421047072 3.5 L 128.11592421047072 0 L 121.11592421047072 -3.5 L 121.11592421047072 -0.5 L 95.83921210523536 -0.5 Z"/><text text-anchor="middle" pointer-events="none" font-size="8px" fill="#000000" x="73.05796210523536" y="3" transform="rotate(180 73.05796210523536 0)" font-family="sans-serif">ACTED_IN</text></g><g class="relationship" transform="translate(170.73873807244163 -2.714817580096696) rotate(503.92125653507117)"><path class="outline" fill="#A5ABB6" stroke="none" d="M 25 0.5 L 35.955793341226794 0.5 L 35.955793341226794 -0.5 L 25 -0.5 Z M 81.5182933412268 0.5 L 92.47408668245359 0.5 L 92.47408668245359 3.5 L 99.47408668245359 0 L 92.47408668245359 -3.5 L 92.47408668245359 -0.5 L 81.5182933412268 -0.5 Z"/><text text-anchor="middle" pointer-events="none" font-size="8px" fill="#000000" x="58.737043341226794" y="3" transform="rotate(180 58.737043341226794 0)" font-family="sans-serif">ACTED_IN</text></g><g class="relationship" transform="translate(156.2251904268925 -60.89447856536891) rotate(483.21465305368906)"><path class="outline" fill="#A5ABB6" stroke="none" d="M 25 0.5 L 52.29764719004771 0.5 L 52.29764719004771 -0.5 L 25 -0.5 Z M 97.86014719004771 0.5 L 125.15779438009542 0.5 L 125.15779438009542 3.5 L 132.15779438009542 0 L 125.15779438009542 -3.5 L 125.15779438009542 -0.5 L 97.86014719004771 -0.5 Z"/><text text-anchor="middle" pointer-events="none" font-size="8px" fill="#000000" x="75.07889719004771" y="3" transform="rotate(180 75.07889719004771 0)" font-family="sans-serif">ACTED_IN</text></g><g class="relationship" transform="translate(96.35741156265448 -57.164872013284786) rotate(461.5982240857169)"><path class="outline" fill="#A5ABB6" stroke="none" d="M 25 0.5 L 38.92640128112063 0.5 L 38.92640128112063 -0.5 L 25 -0.5 Z M 84.48890128112063 0.5 L 98.41530256224127 0.5 L 98.41530256224127 3.5 L 105.41530256224127 0 L 98.41530256224127 -3.5 L 98.41530256224127 -0.5 L 84.48890128112063 -0.5 Z"/><text text-anchor="middle" pointer-events="none" font-size="8px" fill="#000000" x="61.70765128112063" y="3" transform="rotate(180 61.70765128112063 0)" font-family="sans-serif">ACTED_IN</text></g><g class="relationship" transform="translate(39.31012580912638 -75.6704892899399) rotate(438.0976722638728)"><path class="outline" fill="#A5ABB6" stroke="none" d="M 25 0.5 L 48.45454043180227 0.5 L 48.45454043180227 -0.5 L 25 -0.5 Z M 94.01704043180227 0.5 L 117.47158086360454 0.5 L 117.47158086360454 3.5 L 124.47158086360454 0 L 117.47158086360454 -3.5 L 117.47158086360454 -0.5 L 94.01704043180227 -0.5 Z"/><text text-anchor="middle" pointer-events="none" font-size="8px" fill="#000000" x="71.23579043180227" y="3" font-family="sans-serif">ACTED_IN</text></g><g class="relationship" transform="translate(-7.311644454564563 -37.917930307269444) rotate(414.48139389337774)"><path class="outline" fill="#A5ABB6" stroke="none" d="M 25 0.5 L 40.374289773662184 0.5 L 40.374289773662184 -0.5 L 25 -0.5 Z M 85.93678977366218 0.5 L 101.31107954732437 0.5 L 101.31107954732437 3.5 L 108.31107954732437 0 L 101.31107954732437 -3.5 L 101.31107954732437 -0.5 L 85.93678977366218 -0.5 Z"/><text text-anchor="middle" pointer-events="none" font-size="8px" fill="#000000" x="63.155539773662184" y="3" font-family="sans-serif">ACTED_IN</text></g><g class="relationship" transform="translate(-56.85853423207187 -4.133805270178453) rotate(390.47146444613213)"><path class="outline" fill="#A5ABB6" stroke="none" d="M 25 0.5 L 47.39257832469042 0.5 L 47.39257832469042 -0.5 L 25 -0.5 Z M 92.95507832469042 0.5 L 115.34765664938084 0.5 L 115.34765664938084 3.5 L 122.34765664938084 0 L 115.34765664938084 -3.5 L 115.34765664938084 -0.5 L 92.95507832469042 -0.5 Z"/><text text-anchor="middle" pointer-events="none" font-size="8px" fill="#000000" x="70.17382832469042" y="3" font-family="sans-serif">ACTED_IN</text></g><g class="relationship" transform="translate(-62.872889626650704 55.53460199946004) rotate(366.45674720336945)"><path class="outline" fill="#A5ABB6" stroke="none" d="M 25 0.5 L 40.64859550053801 0.5 L 40.64859550053801 -0.5 L 25 -0.5 Z M 86.21109550053801 0.5 L 101.85969100107602 0.5 L 101.85969100107602 3.5 L 108.85969100107602 0 L 101.85969100107602 -3.5 L 101.85969100107602 -0.5 L 86.21109550053801 -0.5 Z"/><text text-anchor="middle" pointer-events="none" font-size="8px" fill="#000000" x="63.42984550053801" y="3" font-family="sans-serif">ACTED_IN</text></g><g class="relationship" transform="translate(-71.8848899219962 114.82771305335055) rotate(342.6981434213477)"><path class="outline" fill="#A5ABB6" stroke="none" d="M 25 0.5 L 48.09552418027363 0.5 L 48.09552418027363 -0.5 L 25 -0.5 Z M 93.65802418027363 0.5 L 116.75354836054726 0.5 L 116.75354836054726 3.5 L 123.75354836054726 0 L 116.75354836054726 -3.5 L 116.75354836054726 -0.5 L 93.65802418027363 -0.5 Z"/><text text-anchor="middle" pointer-events="none" font-size="8px" fill="#000000" x="70.87677418027363" y="3" font-family="sans-serif">ACTED_IN</text></g><g class="relationship" transform="translate(-34.97960479017005 162.12014334410418) rotate(318.9517610173024)"><path class="outline" fill="#A5ABB6" stroke="none" d="M 25 0.5 L 43.41070013613343 0.5 L 43.41070013613343 -0.5 L 25 -0.5 Z M 88.97320013613343 0.5 L 107.38390027226686 0.5 L 107.38390027226686 3.5 L 114.38390027226686 0 L 107.38390027226686 -3.5 L 107.38390027226686 -0.5 L 88.97320013613343 -0.5 Z"/><text text-anchor="middle" pointer-events="none" font-size="8px" fill="#000000" x="66.19195013613343" y="3" font-family="sans-serif">ACTED_IN</text></g><g class="relationship" transform="translate(-1.7059527256965605 212.06332245472507) rotate(296.9221960633488)"><path class="outline" fill="#A5ABB6" stroke="none" d="M 25 0.5 L 53.05491974750562 0.5 L 53.05491974750562 -0.5 L 25 -0.5 Z M 98.61741974750562 0.5 L 126.67233949501124 0.5 L 126.67233949501124 3.5 L 133.67233949501124 0 L 126.67233949501124 -3.5 L 126.67233949501124 -0.5 L 98.61741974750562 -0.5 Z"/><text text-anchor="middle" pointer-events="none" font-size="8px" fill="#000000" x="75.83616974750562" y="3" font-family="sans-serif">ACTED_IN</text></g><g class="relationship" transform="translate(50.6568071513766 182.83740140365677) rotate(279.8455973578015)"><path class="outline" fill="#A5ABB6" stroke="none" d="M 25 0.5 L 30.682635776395678 0.5 L 30.682635776395678 -0.5 L 25 -0.5 Z M 76.24513577639567 0.5 L 81.92777155279136 0.5 L 81.92777155279136 3.5 L 88.92777155279136 0 L 81.92777155279136 -3.5 L 81.92777155279136 -0.5 L 76.24513577639567 -0.5 Z"/><text text-anchor="middle" pointer-events="none" font-size="8px" fill="#000000" x="53.46388577639568" y="3" font-family="sans-serif">ACTED_IN</text></g></g><g class="layer nodes"><g class="node" transform="translate(89.6008886722128,228.4647327782607)"><circle class="outline" cx="0" cy="0" r="25" fill="#68BDF6" stroke="#5CA8DB" stroke-width="2px"/><text text-anchor="middle" pointer-events="none" y="0" font-size="10px" fill="#FFFFFF" font-family="sans-serif"> Stephen</text><text text-anchor="middle" pointer-events="none" y="10" font-size="10px" fill="#FFFFFF" font-family="sans-serif"> McFeely</text></g><g class="node" transform="translate(70.13773338178626,70.58754330044867)"><circle class="outline" cx="0" cy="0" r="25" fill="#6DCE9E" stroke="#60B58B" stroke-width="2px"/><text text-anchor="middle" pointer-events="none" y="-5" font-size="10px" fill="#FFFFFF" font-family="sans-serif"> Captain</text><text text-anchor="middle" pointer-events="none" y="5" font-size="10px" fill="#FFFFFF" font-family="sans-serif"> America:</text><text text-anchor="middle" pointer-events="none" y="15" font-size="10px" fill="#FFFFFF" font-family="sans-serif"> The Fi…</text></g><g class="node" transform="translate(136.60826047653708,190.96804875741225)"><circle class="outline" cx="0" cy="0" r="25" fill="#68BDF6" stroke="#5CA8DB" stroke-width="2px"/><text text-anchor="middle" pointer-events="none" y="0" font-size="10px" fill="#FFFFFF" font-family="sans-serif"> Joe</text><text text-anchor="middle" pointer-events="none" y="10" font-size="10px" fill="#FFFFFF" font-family="sans-serif"> Johnston</text></g><g class="node" transform="translate(195.48505823033628,172.99734167273738)"><circle class="outline" cx="0" cy="0" r="25" fill="#68BDF6" stroke="#5CA8DB" stroke-width="2px"/><text text-anchor="middle" pointer-events="none" y="5" font-size="10px" fill="#FFFFFF" font-family="sans-serif"> JJ Feild</text></g><g class="node" transform="translate(168.88543759891658,119.23971722480388)"><circle class="outline" cx="0" cy="0" r="25" fill="#68BDF6" stroke="#5CA8DB" stroke-width="2px"/><text text-anchor="middle" pointer-events="none" y="5" font-size="10px" fill="#FFFFFF" font-family="sans-serif"> Christop…</text></g><g class="node" transform="translate(222.90851062067952,93.19712057694821)"><circle class="outline" cx="0" cy="0" r="25" fill="#68BDF6" stroke="#5CA8DB" stroke-width="2px"/><text text-anchor="middle" pointer-events="none" y="0" font-size="10px" fill="#FFFFFF" font-family="sans-serif"> Stanley</text><text text-anchor="middle" pointer-events="none" y="10" font-size="10px" fill="#FFFFFF" font-family="sans-serif"> Tucci</text></g><g class="node" transform="translate(218.65671137479436,33.35047275590941)"><circle class="outline" cx="0" cy="0" r="25" fill="#68BDF6" stroke="#5CA8DB" stroke-width="2px"/><text text-anchor="middle" pointer-events="none" y="-5" font-size="10px" fill="#FFFFFF" font-family="sans-serif"> Jackson</text><text text-anchor="middle" pointer-events="none" y="5" font-size="10px" fill="#FFFFFF" font-family="sans-serif"> Samuel L.</text><text text-anchor="middle" pointer-events="none" y="15" font-size="10px" fill="#FFFFFF" font-family="sans-serif"> Jackson</text></g><g class="node" transform="translate(170.73873807244163,-2.714817580096696)"><circle class="outline" cx="0" cy="0" r="25" fill="#68BDF6" stroke="#5CA8DB" stroke-width="2px"/><text text-anchor="middle" pointer-events="none" y="0" font-size="10px" fill="#FFFFFF" font-family="sans-serif"> Dominic</text><text text-anchor="middle" pointer-events="none" y="10" font-size="10px" fill="#FFFFFF" font-family="sans-serif"> Cooper</text></g><g class="node" transform="translate(156.2251904268925,-60.89447856536891)"><circle class="outline" cx="0" cy="0" r="25" fill="#68BDF6" stroke="#5CA8DB" stroke-width="2px"/><text text-anchor="middle" pointer-events="none" y="0" font-size="10px" fill="#FFFFFF" font-family="sans-serif"> Richard</text><text text-anchor="middle" pointer-events="none" y="10" font-size="10px" fill="#FFFFFF" font-family="sans-serif"> Armitage</text></g><g class="node" transform="translate(96.35741156265448,-57.164872013284786)"><circle class="outline" cx="0" cy="0" r="25" fill="#68BDF6" stroke="#5CA8DB" stroke-width="2px"/><text text-anchor="middle" pointer-events="none" y="0" font-size="10px" fill="#FFFFFF" font-family="sans-serif"> Derek</text><text text-anchor="middle" pointer-events="none" y="10" font-size="10px" fill="#FFFFFF" font-family="sans-serif"> Luke</text></g><g class="node" transform="translate(39.31012580912638,-75.6704892899399)"><circle class="outline" cx="0" cy="0" r="25" fill="#68BDF6" stroke="#5CA8DB" stroke-width="2px"/><text text-anchor="middle" pointer-events="none" y="0" font-size="10px" fill="#FFFFFF" font-family="sans-serif"> Kenneth</text><text text-anchor="middle" pointer-events="none" y="10" font-size="10px" fill="#FFFFFF" font-family="sans-serif"> Choi</text></g><g class="node" transform="translate(-7.311644454564563,-37.917930307269444)"><circle class="outline" cx="0" cy="0" r="25" fill="#68BDF6" stroke="#5CA8DB" stroke-width="2px"/><text text-anchor="middle" pointer-events="none" y="0" font-size="10px" fill="#FFFFFF" font-family="sans-serif"> Toby</text><text text-anchor="middle" pointer-events="none" y="10" font-size="10px" fill="#FFFFFF" font-family="sans-serif"> Jones</text></g><g class="node" transform="translate(-56.85853423207187,-4.133805270178453)"><circle class="outline" cx="0" cy="0" r="25" fill="#68BDF6" stroke="#5CA8DB" stroke-width="2px"/><text text-anchor="middle" pointer-events="none" y="0" font-size="10px" fill="#FFFFFF" font-family="sans-serif"> Neal</text><text text-anchor="middle" pointer-events="none" y="10" font-size="10px" fill="#FFFFFF" font-family="sans-serif"> McDon…</text></g><g class="node" transform="translate(-62.872889626650704,55.53460199946004)"><circle class="outline" cx="0" cy="0" r="25" fill="#68BDF6" stroke="#5CA8DB" stroke-width="2px"/><text text-anchor="middle" pointer-events="none" y="0" font-size="10px" fill="#FFFFFF" font-family="sans-serif"> Hugo</text><text text-anchor="middle" pointer-events="none" y="10" font-size="10px" fill="#FFFFFF" font-family="sans-serif"> Weaving</text></g><g class="node" transform="translate(-71.8848899219962,114.82771305335055)"><circle class="outline" cx="0" cy="0" r="25" fill="#68BDF6" stroke="#5CA8DB" stroke-width="2px"/><text text-anchor="middle" pointer-events="none" y="0" font-size="10px" fill="#FFFFFF" font-family="sans-serif"> Tommy</text><text text-anchor="middle" pointer-events="none" y="10" font-size="10px" fill="#FFFFFF" font-family="sans-serif"> Lee Jon…</text></g><g class="node" transform="translate(-34.97960479017005,162.12014334410418)"><circle class="outline" cx="0" cy="0" r="25" fill="#68BDF6" stroke="#5CA8DB" stroke-width="2px"/><text text-anchor="middle" pointer-events="none" y="5" font-size="10px" fill="#FFFFFF" font-family="sans-serif"> Sebastian</text></g><g class="node" transform="translate(-1.7059527256965605,212.06332245472507)"><circle class="outline" cx="0" cy="0" r="25" fill="#68BDF6" stroke="#5CA8DB" stroke-width="2px"/><text text-anchor="middle" pointer-events="none" y="0" font-size="10px" fill="#FFFFFF" font-family="sans-serif"> Hayley</text><text text-anchor="middle" pointer-events="none" y="10" font-size="10px" fill="#FFFFFF" font-family="sans-serif"> Atwell</text></g><g class="node" transform="translate(50.6568071513766,182.83740140365677)"><circle class="outline" cx="0" cy="0" r="25" fill="#68BDF6" stroke="#5CA8DB" stroke-width="2px"/><text text-anchor="middle" pointer-events="none" y="0" font-size="10px" fill="#FFFFFF" font-family="sans-serif"> Chris</text><text text-anchor="middle" pointer-events="none" y="10" font-size="10px" fill="#FFFFFF" font-family="sans-serif"> Evans</text></g></g></svg>