<svg xmlns="http://www.w3.org/2000/svg" width="529.5078125" height="65.89183807373047" viewBox="-404.8023376464844 74.30030059814453 529.5078125 65.89183807373047"><title>Neo4j Graph Visualization</title><desc>Created using Neo4j (http://www.neo4j.com/)</desc><g class="layer relationships"><g class="relationship" transform="translate(95.70546173882151 103.30030419335918) rotate(539.2368831583428)"><path class="outline" fill="#FB95AF" stroke="none" d="M 25 4 L 76.69018600438211 4 L 76.69018600438211 -4 L 25 -4 Z M 115.15112350438211 4 L 166.84130950876423 4 L 166.84130950876423 7 L 180.84130950876423 0 L 166.84130950876423 -7 L 166.84130950876423 -4 L 115.15112350438211 -4 Z"/><text text-anchor="middle" pointer-events="none" font-size="8px" fill="#000000" x="95.92065475438211" y="3" transform="rotate(180 95.92065475438211 0)" font-family="sans-serif">economy</text></g><g class="relationship" transform="translate(-110.11759062210781 106.04180325646647) rotate(538.8894521622819)"><path class="outline" fill="#FB95AF" stroke="none" d="M 25 4 L 106.63686518248494 4 L 106.63686518248494 -4 L 25 -4 Z M 145.09780268248494 4 L 226.73466786496988 4 L 226.73466786496988 7 L 240.73466786496988 0 L 226.73466786496988 -7 L 226.73466786496988 -4 L 145.09780268248494 -4 Z"/><text text-anchor="middle" pointer-events="none" font-size="8px" fill="#000000" x="125.86733393248494" y="3" transform="rotate(180 125.86733393248494 0)" font-family="sans-serif">economy</text></g></g><g class="layer nodes"><g class="node" transform="translate(-375.8023431623378,111.19214042432156)"><circle class="outline" cx="0" cy="0" r="25" fill="#FFD86E" stroke="#EDBA39" stroke-width="2px"/><text text-anchor="middle" pointer-events="none" y="5" font-size="10px" fill="#604A0E" font-family="sans-serif"> GRR</text></g><g class="node" transform="translate(95.70546173882151,103.30030419335918)"><circle class="outline" cx="0" cy="0" r="25" fill="#FFD86E" stroke="#EDBA39" stroke-width="2px"/><text text-anchor="middle" pointer-events="none" y="5" font-size="10px" fill="#604A0E" font-family="sans-serif"> MSN</text></g><g class="node" transform="translate(-110.11759062210781,106.04180325646647)"><circle class="outline" cx="0" cy="0" r="25" fill="#FFD86E" stroke="#EDBA39" stroke-width="2px"/><text text-anchor="middle" pointer-events="none" y="5" font-size="10px" fill="#604A0E" font-family="sans-serif"> ORD</text></g></g></svg>