<svg xmlns="http://www.w3.org/2000/svg" width="253.5898895263672" height="253.95791625976562" viewBox="-31.752574920654297 -21.74840545654297 253.5898895263672 253.95791625976562"><title>Neo4j Graph Visualization</title><desc>Created using Neo4j (http://www.neo4j.com/)</desc><g class="layer relationships"><g class="relationship" transform="translate(84.75905425318105 115.05076484352097) rotate(495.28100685560423)"><path class="outline" fill="#A5ABB6" stroke="none" d="M 25 0.5 L 28.513837483383625 0.5 L 28.513837483383625 -0.5 L 25 -0.5 Z M 74.07633748338363 0.5 L 77.59017496676725 0.5 L 77.59017496676725 3.5 L 84.59017496676725 0 L 77.59017496676725 -3.5 L 77.59017496676725 -0.5 L 74.07633748338363 -0.5 Z"/><text text-anchor="middle" pointer-events="none" font-size="8px" fill="#000000" x="51.295087483383625" y="3" transform="rotate(180 51.295087483383625 0)" font-family="sans-serif">ACTED_IN</text></g><g class="relationship" transform="translate(84.75905425318105 115.05076484352097) rotate(218.58925710547857)"><path class="outline" fill="#A5ABB6" stroke="none" d="M 25 0.5 L 29.69843075782468 0.5 L 29.69843075782468 -0.5 L 25 -0.5 Z M 75.26093075782468 0.5 L 79.95936151564936 0.5 L 79.95936151564936 3.5 L 86.95936151564936 0 L 79.95936151564936 -3.5 L 79.95936151564936 -0.5 L 75.26093075782468 -0.5 Z"/><text text-anchor="middle" pointer-events="none" font-size="8px" fill="#000000" x="52.47968075782468" y="3" transform="rotate(180 52.47968075782468 0)" font-family="sans-serif">ACTED_IN</text></g><g class="relationship" transform="translate(84.75905425318105 115.05076484352097) rotate(285.4030675034094)"><path class="outline" fill="#A5ABB6" stroke="none" d="M 25 0.5 L 29.626474493323165 0.5 L 29.626474493323165 -0.5 L 25 -0.5 Z M 75.18897449332317 0.5 L 79.81544898664633 0.5 L 79.81544898664633 3.5 L 86.81544898664633 0 L 79.81544898664633 -3.5 L 79.81544898664633 -0.5 L 75.18897449332317 -0.5 Z"/><text text-anchor="middle" pointer-events="none" font-size="8px" fill="#000000" x="52.407724493323165" y="3" font-family="sans-serif">ACTED_IN</text></g><g class="relationship" transform="translate(84.75905425318105 115.05076484352097) rotate(411.9783656229731)"><path class="outline" fill="#A5ABB6" stroke="none" d="M 25 0.5 L 29.672783572474422 0.5 L 29.672783572474422 -0.5 L 25 -0.5 Z M 75.23528357247443 0.5 L 79.90806714494884 0.5 L 79.90806714494884 3.5 L 86.90806714494884 0 L 79.90806714494884 -3.5 L 79.90806714494884 -0.5 L 75.23528357247443 -0.5 Z"/><text text-anchor="middle" pointer-events="none" font-size="8px" fill="#000000" x="52.45403357247442" y="3" font-family="sans-serif">ACTED_IN</text></g><g class="relationship" transform="translate(84.75905425318105 115.05076484352097) rotate(345.1467181897938)"><path class="outline" fill="#A5ABB6" stroke="none" d="M 25 0.5 L 29.62598613325448 0.5 L 29.62598613325448 -0.5 L 25 -0.5 Z M 75.18848613325449 0.5 L 79.81447226650896 0.5 L 79.81447226650896 3.5 L 86.81447226650896 0 L 79.81447226650896 -3.5 L 79.81447226650896 -0.5 L 75.18848613325449 -0.5 Z"/><text text-anchor="middle" pointer-events="none" font-size="8px" fill="#000000" x="52.40723613325448" y="3" font-family="sans-serif">ACTED_IN</text></g></g><g class="layer nodes"><g class="node" transform="translate(153.68983284176218,203.2095038050691)"><circle class="outline" cx="0" cy="0" r="25" fill="#6DCE9E" stroke="#60B58B" stroke-width="2px"/><text text-anchor="middle" pointer-events="none" y="0" font-size="10px" fill="#FFFFFF" font-family="sans-serif"> Cloud</text><text text-anchor="middle" pointer-events="none" y="10" font-size="10px" fill="#FFFFFF" font-family="sans-serif"> Atlas</text></g><g class="node" transform="translate(84.75905425318105,115.05076484352097)"><circle class="outline" cx="0" cy="0" r="25" fill="#68BDF6" stroke="#5CA8DB" stroke-width="2px"/><text text-anchor="middle" pointer-events="none" y="0" font-size="10px" fill="#FFFFFF" font-family="sans-serif"> Hugo</text><text text-anchor="middle" pointer-events="none" y="10" font-size="10px" fill="#FFFFFF" font-family="sans-serif"> Weaving</text></g><g class="node" transform="translate(192.83729295669934,86.38771324423693)"><circle class="outline" cx="0" cy="0" r="25" fill="#6DCE9E" stroke="#60B58B" stroke-width="2px"/><text text-anchor="middle" pointer-events="none" y="0" font-size="10px" fill="#FFFFFF" font-family="sans-serif"> V for</text><text text-anchor="middle" pointer-events="none" y="10" font-size="10px" fill="#FFFFFF" font-family="sans-serif"> Vendetta</text></g><g class="node" transform="translate(114.45810215937493,7.251594227273128)"><circle class="outline" cx="0" cy="0" r="25" fill="#6DCE9E" stroke="#60B58B" stroke-width="2px"/><text text-anchor="middle" pointer-events="none" y="-5" font-size="10px" fill="#FFFFFF" font-family="sans-serif"> The</text><text text-anchor="middle" pointer-events="none" y="5" font-size="10px" fill="#FFFFFF" font-family="sans-serif"> Matrix</text><text text-anchor="middle" pointer-events="none" y="15" font-size="10px" fill="#FFFFFF" font-family="sans-serif"> Revol…</text></g><g class="node" transform="translate(-2.7525739516760996,45.21801063801423)"><circle class="outline" cx="0" cy="0" r="25" fill="#6DCE9E" stroke="#60B58B" stroke-width="2px"/><text text-anchor="middle" pointer-events="none" y="-5" font-size="10px" fill="#FFFFFF" font-family="sans-serif"> The</text><text text-anchor="middle" pointer-events="none" y="5" font-size="10px" fill="#FFFFFF" font-family="sans-serif"> Matrix</text><text text-anchor="middle" pointer-events="none" y="15" font-size="10px" fill="#FFFFFF" font-family="sans-serif"> Reloa…</text></g><g class="node" transform="translate(6.8879730044476375,192.1617313424556)"><circle class="outline" cx="0" cy="0" r="25" fill="#6DCE9E" stroke="#60B58B" stroke-width="2px"/><text text-anchor="middle" pointer-events="none" y="0" font-size="10px" fill="#FFFFFF" font-family="sans-serif"> The</text><text text-anchor="middle" pointer-events="none" y="10" font-size="10px" fill="#FFFFFF" font-family="sans-serif"> Matrix</text></g></g></svg>