<svg xmlns="http://www.w3.org/2000/svg" width="206.65289306640625" height="231.873779296875" viewBox="-3.318571090698242 -16.943687438964844 206.65289306640625 231.873779296875"><title>Neo4j Graph Visualization</title><desc>Created using Neo4j (http://www.neo4j.com/)</desc><g class="layer relationships"><g class="relationship" transform="translate(122.46102791469616 53.016004394666105) rotate(202.93936900377554)"><path class="outline" fill="#A5ABB6" stroke="none" d="M 25 0.5 L 39.377219257903185 0.5 L 39.377219257903185 -0.5 L 25 -0.5 Z M 58.713156757903185 0.5 L 73.09037601580637 0.5 L 73.09037601580637 3.5 L 80.09037601580637 0 L 73.09037601580637 -3.5 L 73.09037601580637 -0.5 L 58.713156757903185 -0.5 Z"/><text text-anchor="middle" pointer-events="none" font-size="8px" fill="#000000" x="49.045188007903185" y="3" transform="rotate(180 49.045188007903185 0)" font-family="sans-serif">trek</text></g><g class="relationship" transform="translate(174.33432304721876 185.93008052263644) rotate(198.6892504737766)"><path class="outline" fill="#A5ABB6" stroke="none" d="M 21.40063509461097,12.933012701892217 L 21.90063509461097,12.06698729810778 A 57.99872508540365 57.99872508540365 0 0 0 39.57029684714922,18.719985688049263 L 39.37495288444176,19.70072048208572 A 58.99872508540365 58.99872508540365 0 0 1 21.40063509461097,12.933012701892217 Z M 58.77797237760231,20.309012852255464 L 58.64444449663733,19.317967795255022 A 57.99872508540365 57.99872508540365 0 0 0 76.69614588555775,13.784848332336834 L 75.36183302556334,11.097915286715207 L 83.18804180200729,11.119273833286798 L 78.47522969888364,17.367425726499004 L 77.14091683888923,14.680492680877377 A 58.99872508540365 58.99872508540365 0 0 1 58.77797237760231,20.309012852255464"/><text text-anchor="middle" pointer-events="none" font-size="8px" fill="#000000" x="49.06693995039078" y="23.30861658575614" transform="rotate(180 49.06693995039078 20.30861658575614)" font-family="sans-serif">trek</text></g><g class="relationship" transform="translate(74.3223175593906 152.0987964518) rotate(295.9124885073494)"><path class="outline" fill="#A5ABB6" stroke="none" d="M 25 0.5 L 41.910918122623976 0.5 L 41.910918122623976 -0.5 L 25 -0.5 Z M 61.246855622623976 0.5 L 78.15777374524795 0.5 L 78.15777374524795 3.5 L 85.15777374524795 0 L 78.15777374524795 -3.5 L 78.15777374524795 -0.5 L 61.246855622623976 -0.5 Z"/><text text-anchor="middle" pointer-events="none" font-size="8px" fill="#000000" x="51.578886872623976" y="3" font-family="sans-serif">trek</text></g><g class="relationship" transform="translate(174.33432304721876 185.93008052263644) rotate(198.6892504737766)"><path class="outline" fill="#A5ABB6" stroke="none" d="M 25 0.5 L 25.54348150776041 0.5 L 25.54348150776041 -0.5 L 25 -0.5 Z M 73.03566900776042 0.5 L 73.57915051552082 0.5 L 73.57915051552082 3.5 L 80.57915051552082 0 L 73.57915051552082 -3.5 L 73.57915051552082 -0.5 L 73.03566900776042 -0.5 Z"/><text text-anchor="middle" pointer-events="none" font-size="8px" fill="#000000" x="49.28957525776041" y="3" transform="rotate(180 49.28957525776041 0)" font-family="sans-serif">PublicTra…</text></g><g class="relationship" transform="translate(174.33432304721876 185.93008052263644) rotate(198.6892504737766)"><path class="outline" fill="#A5ABB6" stroke="none" d="M 21.40063509461097,-12.933012701892217 L 21.90063509461097,-12.06698729810778 A 57.99872508540365 57.99872508540365 0 0 1 38.27247218155151,-18.446017789505348 L 38.054751439635766,-19.422028895251415 A 58.99872508540365 58.99872508540365 0 0 0 21.40063509461097,-12.933012701892217 Z M 60.11303828371492,-20.113564951842953 L 59.9568816780753,-19.125832642704943 A 57.99872508540365 57.99872508540365 0 0 1 76.69614588555775,-13.784848332336834 L 75.36183302556334,-11.097915286715207 L 83.18804180200729,-11.119273833286798 L 78.47522969888364,-17.367425726499004 L 77.14091683888923,-14.680492680877377 A 58.99872508540365 58.99872508540365 0 0 0 60.11303828371492,-20.113564951842953"/><text text-anchor="middle" pointer-events="none" font-size="8px" fill="#000000" x="49.06693995039077" y="-17.30861658575614" transform="rotate(180 49.06693995039077 -20.30861658575614)" font-family="sans-serif">road</text></g></g><g class="layer nodes"><g class="node" transform="translate(74.3223175593906,152.0987964518)"><circle class="outline" cx="0" cy="0" r="25" fill="#FF756E" stroke="#E06760" stroke-width="2px"/><text text-anchor="middle" pointer-events="none" y="5" font-size="10px" fill="#FFFFFF" font-family="sans-serif"> Rimbik</text></g><g class="node" transform="translate(174.33432304721876,185.93008052263644)"><circle class="outline" cx="0" cy="0" r="25" fill="#FF756E" stroke="#E06760" stroke-width="2px"/><text text-anchor="middle" pointer-events="none" y="5" font-size="10px" fill="#FFFFFF" font-family="sans-serif"> Darjeeling</text></g><g class="node" transform="translate(122.46102791469616,53.016004394666105)"><circle class="outline" cx="0" cy="0" r="25" fill="#FB95AF" stroke="#E0849B" stroke-width="2px"/><text text-anchor="middle" pointer-events="none" y="5" font-size="10px" fill="#FFFFFF" font-family="sans-serif"> BhikeBh…</text></g><g class="node" transform="translate(25.68142858614572,12.056313417452769)"><circle class="outline" cx="0" cy="0" r="25" fill="#DE9BF9" stroke="#BF85D6" stroke-width="2px"/><text text-anchor="middle" pointer-events="none" y="5" font-size="10px" fill="#FFFFFF" font-family="sans-serif"> Sandak…</text></g></g></svg>